<?xml version="1.0" encoding="UTF-8" standalone="no"?>
<svg
   width="309"
   height="70"
   viewBox="0 0 309 70"
   fill="none"
   version="1.1"
   id="svg27"
   sodipodi:docname="logo.svg"
   inkscape:version="1.1.2 (0a00cf5339, 2022-02-04)"
   xmlns:inkscape="http://www.inkscape.org/namespaces/inkscape"
   xmlns:sodipodi="http://sodipodi.sourceforge.net/DTD/sodipodi-0.dtd"
   xmlns="http://www.w3.org/2000/svg"
   xmlns:svg="http://www.w3.org/2000/svg">
  <sodipodi:namedview
     id="namedview29"
     pagecolor="#ffffff"
     bordercolor="#666666"
     borderopacity="1.0"
     inkscape:pageshadow="2"
     inkscape:pageopacity="0.0"
     inkscape:pagecheckerboard="0"
     showgrid="false"
     inkscape:zoom="1.9660194"
     inkscape:cx="188.45185"
     inkscape:cy="78.330864"
     inkscape:window-width="1366"
     inkscape:window-height="714"
     inkscape:window-x="1600"
     inkscape:window-y="22"
     inkscape:window-maximized="1"
     inkscape:current-layer="svg27" />
  <text
     xml:space="preserve"
     style="font-size:54.2738px;line-height:1.25;font-family:Arial;-inkscape-font-specification:'Arial, Normal';fill:#ffffff;stroke-width:1.01763"
     x="42.859001"
     y="53.189568"
     id="text19197"
     transform="scale(0.98267071,1.0176349)"><tspan
       sodipodi:role="line"
       id="tspan19195"
       x="42.859001"
       y="53.189568"
       style="font-style:normal;font-variant:normal;font-weight:bold;font-stretch:normal;font-family:Arial;-inkscape-font-specification:'Arial Bold';fill:#ffffff;stroke-width:1.01763">Sys</tspan></text>
  <g
     filter="url(#filter0_d_509_52)"
     id="g6"
     transform="translate(-40)">
    <path
       d="m 183.793,40.0116 h -10.408 v -6.5648 h 10.408 c 1.609,0 2.918,-0.2618 3.928,-0.7855 1.01,-0.5424 1.748,-1.2905 2.216,-2.2443 0.468,-0.9539 0.701,-2.0293 0.701,-3.2263 0,-1.2157 -0.233,-2.3472 -0.701,-3.3946 -0.468,-1.0473 -1.206,-1.889 -2.216,-2.5249 -1.01,-0.6359 -2.319,-0.9538 -3.928,-0.9538 h -7.49 v 34.2544 h -8.417 V 13.7246 h 15.907 c 3.198,0 5.938,0.5798 8.22,1.7394 2.301,1.1409 4.059,2.7213 5.274,4.7412 1.216,2.0199 1.824,4.3297 1.824,6.9294 0,2.6371 -0.608,4.9189 -1.824,6.8453 -1.215,1.9264 -2.973,3.4132 -5.274,4.4606 -2.282,1.0474 -5.022,1.5711 -8.22,1.5711 z m 29.149,-15.7947 v 30.3549 h -8.108 V 24.2169 Z m -8.613,-7.9113 c 0,-1.1783 0.411,-2.1508 1.234,-2.9176 0.823,-0.7669 1.927,-1.1503 3.311,-1.1503 1.365,0 2.459,0.3834 3.282,1.1503 0.842,0.7668 1.263,1.7393 1.263,2.9176 0,1.1783 -0.421,2.1508 -1.263,2.9177 -0.823,0.7668 -1.917,1.1502 -3.282,1.1502 -1.384,0 -2.488,-0.3834 -3.311,-1.1502 -0.823,-0.7669 -1.234,-1.7394 -1.234,-2.9177 z m 39.444,31.9539 v 6.3123 h -23.06 V 48.2595 Z M 243.325,28.874 223.967,54.5718 h -5.415 v -4.7973 l 19.274,-25.5576 h 5.499 z m -2.862,-4.6571 v 6.3403 h -21.462 v -6.3403 z m 32.543,24.0426 v 6.3123 H 249.945 V 48.2595 Z M 272.557,28.874 253.2,54.5718 h -5.415 v -4.7973 l 19.274,-25.5576 h 5.498 z m -2.861,-4.6571 v 6.3403 h -21.462 v -6.3403 z m 24.772,23.5096 V 34.2043 c 0,-0.9725 -0.159,-1.8048 -0.477,-2.4968 -0.318,-0.7107 -0.814,-1.2625 -1.487,-1.6552 -0.655,-0.3928 -1.506,-0.5892 -2.553,-0.5892 -0.898,0 -1.674,0.159 -2.329,0.4769 -0.654,0.2993 -1.159,0.7388 -1.515,1.3186 -0.355,0.5611 -0.533,1.225 -0.533,1.9919 h -8.079 c 0,-1.2905 0.299,-2.5156 0.897,-3.6752 0.599,-1.1596 1.469,-2.1789 2.61,-3.0579 1.14,-0.8977 2.496,-1.5991 4.067,-2.1041 1.59,-0.505 3.367,-0.7574 5.331,-0.7574 2.356,0 4.451,0.3927 6.284,1.1782 1.833,0.7856 3.273,1.9638 4.32,3.5349 1.066,1.571 1.599,3.5348 1.599,5.8914 v 12.9892 c 0,1.6645 0.103,3.0299 0.309,4.0959 0.206,1.0474 0.505,1.9638 0.898,2.7494 v 0.4769 h -8.164 c -0.393,-0.823 -0.692,-1.8516 -0.898,-3.086 -0.187,-1.2531 -0.28,-2.5062 -0.28,-3.7593 z m 1.066,-11.6426 0.056,4.5729 h -4.517 c -1.066,0 -1.992,0.1216 -2.777,0.3647 -0.786,0.2432 -1.431,0.5892 -1.936,1.038 -0.505,0.4302 -0.879,0.9352 -1.122,1.515 -0.225,0.5798 -0.337,1.2157 -0.337,1.9077 0,0.692 0.159,1.3185 0.477,1.8796 0.318,0.5424 0.776,0.9726 1.375,1.2905 0.598,0.2993 1.3,0.4489 2.104,0.4489 1.215,0 2.272,-0.2432 3.17,-0.7294 0.898,-0.4863 1.59,-1.0848 2.076,-1.7955 0.505,-0.7107 0.767,-1.384 0.785,-2.0199 l 2.133,3.4226 c -0.3,0.7668 -0.711,1.5617 -1.235,2.3846 -0.505,0.8229 -1.15,1.5991 -1.936,2.3285 -0.785,0.7107 -1.73,1.2999 -2.833,1.7675 -1.104,0.4488 -2.413,0.6733 -3.928,0.6733 -1.926,0 -3.675,-0.3834 -5.246,-1.1503 -1.552,-0.7855 -2.787,-1.8609 -3.703,-3.2262 -0.898,-1.384 -1.347,-2.9551 -1.347,-4.7132 0,-1.5897 0.3,-3.0018 0.898,-4.2362 0.599,-1.2344 1.478,-2.2724 2.637,-3.114 1.179,-0.8603 2.647,-1.5056 4.405,-1.9357 1.758,-0.4489 3.796,-0.6734 6.116,-0.6734 z"
       fill="#ff3f4b"
       id="path4" />
  </g>
  <defs
     id="defs25">
    <filter
       id="filter0_d_509_52"
       x="162.101"
       y="5.80922"
       width="146.209"
       height="53.1807"
       filterUnits="userSpaceOnUse"
       color-interpolation-filters="sRGB">
      <feFlood
         flood-opacity="0"
         result="BackgroundImageFix"
         id="feFlood8" />
      <feColorMatrix
         in="SourceAlpha"
         type="matrix"
         values="0 0 0 0 0 0 0 0 0 0 0 0 0 0 0 0 0 0 127 0"
         result="hardAlpha"
         id="feColorMatrix10" />
      <feOffset
         dx="-0.642857"
         dy="-1.28571"
         id="feOffset12" />
      <feGaussianBlur
         stdDeviation="2.57143"
         id="feGaussianBlur14" />
      <feComposite
         in2="hardAlpha"
         operator="out"
         id="feComposite16" />
      <feColorMatrix
         type="matrix"
         values="0 0 0 0 0 0 0 0 0 0 0 0 0 0 0 0 0 0 0.5 0"
         id="feColorMatrix18" />
      <feBlend
         mode="normal"
         in2="BackgroundImageFix"
         result="effect1_dropShadow_509_52"
         id="feBlend20" />
      <feBlend
         mode="normal"
         in="SourceGraphic"
         in2="effect1_dropShadow_509_52"
         result="shape"
         id="feBlend22" />
    </filter>
  </defs>
</svg>
